<svg viewBox="0 0 64 64" xmlns="http://www.w3.org/2000/svg">
  <defs>
    <linearGradient id="grad" x1="0%" y1="0%" x2="100%" y2="100%">
      <stop offset="0%" stop-color="#CA8A04"/>
      <stop offset="100%" stop-color="#EAB308"/>
    </linearGradient>
  </defs>
  <circle cx="32" cy="32" r="30" fill="#fef3c7" stroke="url(#grad)" stroke-width="3"/>
  <g fill="none" stroke="#57534e" stroke-width="3" stroke-linecap="round" stroke-linejoin="round">
    <path d="M20 18 L20 30 Q20 36 26 38 L32 40 Q38 42 38 48" stroke="#eab308"/>
    <path d="M44 18 L44 30 Q44 36 38 38 L32 40 Q26 42 26 48" stroke="#eab308"/>
    <path d="M24 16 C24 12 28 10 32 10 C36 10 40 12 40 16" stroke="#a8a29e" stroke-width="2"/>
    <path d="M24 48 C24 52 28 54 32 54 C36 54 40 52 40 48" stroke="#a8a29e" stroke-width="2"/>
  </g>
  <circle cx="32" cy="32" r="4" fill="url(#grad)"/>
  <path d="M32 28 L32 20" stroke="#57534e" stroke-width="2" stroke-linecap="round"/>
  <path d="M32 36 L32 44" stroke="#57534e" stroke-width="2" stroke-linecap="round"/>
</svg>